<svg viewBox="0 0 72 72" xmlns="http://www.w3.org/2000/svg" xmlns:xlink="http://www.w3.org/1999/xlink" width="72.000000" height="72.000000" fill="none" customFrame="#000000">
	<g id="Group 1686550876">
		<path id="Oval Copy 8" d="M56.4 20.0656C59.3823 20.0656 61.8 17.6875 61.8 14.7541C61.8 11.8207 59.3823 9.44263 56.4 9.44263C53.4177 9.44263 51 11.8207 51 14.7541C51 17.6875 53.4177 20.0656 56.4 20.0656Z" fill="rgb(127,38,91)" fill-rule="evenodd" />
		<path id="Oval Copy 8" d="M61.8 14.7541C61.8 11.8207 59.3823 9.44263 56.4 9.44263C53.4177 9.44263 51 11.8207 51 14.7541C51 17.6875 53.4177 20.0656 56.4 20.0656C59.3823 20.0656 61.8 17.6875 61.8 14.7541Z" fill-rule="evenodd" stroke="rgb(150.96,150.96,150.96)" stroke-opacity="0" stroke-width="0" />
		<path id="Oval Copy 9" d="M16.2 20.0656C19.1824 20.0656 21.6 17.6875 21.6 14.7541C21.6 11.8207 19.1824 9.44263 16.2 9.44263C13.2177 9.44263 10.8 11.8207 10.8 14.7541C10.8 17.6875 13.2177 20.0656 16.2 20.0656Z" fill="rgb(127,38,91)" fill-rule="evenodd" />
		<path id="Oval Copy 9" d="M21.6 14.7541C21.6 11.8207 19.1824 9.44263 16.2 9.44263C13.2177 9.44263 10.8 11.8207 10.8 14.7541C10.8 17.6875 13.2177 20.0656 16.2 20.0656C19.1824 20.0656 21.6 17.6875 21.6 14.7541Z" fill-rule="evenodd" stroke="rgb(150.96,150.96,150.96)" stroke-opacity="0" stroke-width="0" />
		<path id="Oval Copy 10" d="M16.2 62.5574C19.1824 62.5574 21.6 60.1793 21.6 57.2459C21.6 54.3124 19.1824 51.9344 16.2 51.9344C13.2177 51.9344 10.8 54.3124 10.8 57.2459C10.8 60.1793 13.2177 62.5574 16.2 62.5574Z" fill="rgb(127,38,91)" fill-rule="evenodd" />
		<path id="Oval Copy 10" d="M21.6 57.2459C21.6 54.3124 19.1824 51.9344 16.2 51.9344C13.2177 51.9344 10.8 54.3124 10.8 57.2459C10.8 60.1793 13.2177 62.5574 16.2 62.5574C19.1824 62.5574 21.6 60.1793 21.6 57.2459Z" fill-rule="evenodd" stroke="rgb(150.96,150.96,150.96)" stroke-opacity="0" stroke-width="0" />
		<path id="Oval Copy 11" d="M56.4 62.5574C59.3823 62.5574 61.8 60.1793 61.8 57.2459C61.8 54.3124 59.3823 51.9344 56.4 51.9344C53.4177 51.9344 51 54.3124 51 57.2459C51 60.1793 53.4177 62.5574 56.4 62.5574Z" fill="rgb(127,38,91)" fill-rule="evenodd" />
		<path id="Oval Copy 11" d="M61.8 57.2459C61.8 54.3124 59.3823 51.9344 56.4 51.9344C53.4177 51.9344 51 54.3124 51 57.2459C51 60.1793 53.4177 62.5574 56.4 62.5574C59.3823 62.5574 61.8 60.1793 61.8 57.2459Z" fill-rule="evenodd" stroke="rgb(150.96,150.96,150.96)" stroke-opacity="0" stroke-width="0" />
		<rect id="Rectangle 9629" width="72.000000" height="7.081967" x="0.000000" y="32.459015" rx="3.540983" fill="rgb(85,85,85)" />
		<rect id="Rectangle 9634" width="29.508198" height="7.200000" x="0.000000" y="0.000000" rx="3.600000" fill="rgb(85,85,85)" transform="matrix(-4.44399e-08,1,-1,-4.29948e-08,39.6,42.4918)" />
		<rect id="Rectangle 9635" width="29.508198" height="7.200000" x="0.000000" y="0.000000" rx="3.600000" fill="rgb(85,85,85)" transform="matrix(-4.44399e-08,1,-1,-4.29948e-08,39.6,0)" />
	</g>
</svg>
